<svg width="1440" height="995" viewBox="0 0 1440 995" fill="none" xmlns="http://www.w3.org/2000/svg">
    <rect width="1440" height="464" fill="#1243E3"/>
    <path d="M755.262 691.623C334.309 805.111 -1 740.909 -1 740.909V441H1443V619.268C1443 619.268 1103.38 597.771 755.262 691.623Z" fill="#1243E3"/>
    <g opacity="0.1">
        <path fill-rule="evenodd" clip-rule="evenodd" d="M310.512 548.252C521.753 490.607 760 488.206 760 488.206C760 488.206 677.184 462.386 524.154 450.376C362.722 437.766 263.103 447.374 263.103 447.374L150.281 224L30.2576 475.596C30.2576 475.596 -113.17 493.61 -265 554.257L-51.3583 714.582C-51.3583 714.582 93.87 607.098 310.512 548.252Z" fill="white"/>
        <path fill-rule="evenodd" clip-rule="evenodd" d="M27.257 755.414C-130.574 861.696 -201.988 994.4 -201.988 994.4C-204.388 1001 -30.3542 855.692 165.884 855.692C341.718 855.692 502.55 984.792 502.55 984.792L326.115 617.306C326.115 617.306 185.088 649.731 27.257 755.414Z" fill="white"/>
    </g>
    <g clip-path="url(#clip0)">
        <path d="M1073.9 279.9C1073.9 279.9 1062.9 274.2 1060.9 270.6C1062.7 268.8 1077 273.7 1077 273.7L1073.9 279.9Z" fill="#FBDCD7"/>
        <path d="M1150.1 243.3C1150.1 243.3 1145.3 239.3 1148.6 235.4C1152.3 233.7 1166.9 232.4 1171.1 241.8C1172.9 246.7 1172.2 259.7 1169.6 261.8C1166.1 255.8 1164.3 248 1164.3 248L1160.6 245L1157.5 243.3" fill="#1D2775"/>
        <path d="M1165 419.2L1182.2 419.5L1185.5 359.9C1185.5 359.5 1185.6 359.1 1185.6 358.7C1185.6 352.6 1180.6 347.6 1174.5 347.6C1168.4 347.6 1163.4 352.6 1163.4 358.7C1163.4 358.8 1163.4 359 1163.4 359.1L1165 419.2Z" fill="#00BEEC"/>
        <path d="M1143.5 414.2L1160.7 414.5L1164 354.9C1164 354.5 1164.1 354.1 1164.1 353.7C1164.1 347.6 1159.1 342.6 1153 342.6C1146.9 342.6 1141.9 347.6 1141.9 353.7C1141.9 353.8 1141.9 354 1141.9 354.1L1143.5 414.2Z" fill="#00BEEC"/>
        <path d="M1173.6 410.7C1168.8 410.7 1164.9 414.5 1164.9 419.2L1168.7 499.1H1177.2L1182.2 420.2C1182.2 419.9 1182.3 419.5 1182.3 419.2C1182.3 414.5 1178.4 410.7 1173.6 410.7Z" fill="#00BEEC"/>
        <path d="M1152.2 405.6C1147.4 405.6 1143.5 409.4 1143.5 414.1L1147.3 494H1155.8L1160.8 415.1C1160.8 414.8 1160.9 414.4 1160.9 414.1C1160.9 409.5 1157 405.6 1152.2 405.6Z" fill="#00BEEC"/>
        <path d="M1188.6 293.2L1185.6 359.6H1164.2H1163.3H1141.9L1138.9 293.2C1138.9 293.2 1136.7 274 1164.5 273.4C1180.9 273.7 1188.2 278.8 1188.6 293.2Z" fill="#1D2775"/>
        <path d="M1168.7 499.1C1168.7 499.1 1162.2 500.4 1161.1 504.7C1170.6 504.7 1177.3 504.7 1177.3 504.7V499.1C1177.2 499.1 1168.5 499.3 1168.7 499.1Z" fill="white"/>
        <path d="M1147.2 494.1C1147.2 494.1 1140.7 495.4 1139.6 499.7C1149.1 499.7 1155.8 499.7 1155.8 499.7V494.1C1155.7 494.1 1147 494.2 1147.2 494.1Z" fill="white"/>
        <path d="M1148 278.7C1153.6 277.5 1159 281.1 1160.2 286.7C1161.4 292.3 1158.9 295.3 1152.2 298.9C1152.2 298.9 1124.1 317.4 1073.8 280C1076.1 276 1077 273.8 1077 273.8C1077 273.8 1115 297.4 1148 278.7Z" fill="#1D2775"/>
        <path d="M1170.4 245.1C1170.4 245.1 1160.4 232.5 1150.5 243.3C1150.5 243.3 1145.8 262.9 1150.8 268.4C1155.6 270.5 1157 269.4 1157 269.4L1156.9 276.4C1157.7 282.5 1169.3 276.1 1169.3 276.1C1168.8 265.6 1170.4 245.1 1170.4 245.1Z" fill="#FBDCD7"/>
        <path d="M1151 238.9L1150.5 242.7C1150.5 242.7 1158.2 247.2 1166 246.1C1165.1 249.5 1164.8 254.4 1166.3 255.2C1166.5 252.6 1169.1 248.1 1170.6 252C1172.1 255.9 1170.8 243.7 1170.8 243.7L1168.6 241.1L1163.5 238.2L1159.2 236.8L1156.4 236" fill="#1D2775"/>
        <path d="M1172.5 299.1C1168.8 293.6 1169.3 285.3 1173.7 280.5C1178 275.8 1181.9 276.7 1188.2 282C1188.2 282 1235.2 317.5 1190.2 367.2C1187.2 361.4 1186.2 360 1186.2 360C1186.2 360 1216.6 316.2 1172.5 299.1Z" fill="#1D2775"/>
        <path d="M1190.2 367.2C1190.2 367.2 1180.1 376.4 1176 376.5C1175.3 373.4 1186.2 360 1186.2 360L1190.2 367.2Z" fill="#FBDCD7"/>
        <path d="M1113.6 285.6C1093.2 283.8 1077 273.8 1077 273.8C1077 273.8 1076.2 276 1073.8 280C1089.2 291.5 1102.6 297.7 1113.7 300.8C1114.6 295.3 1114.2 289.8 1113.6 285.6Z" fill="#FBDCD7"/>
        <path d="M1196.4 331C1195.8 346.2 1186.2 360 1186.2 360C1186.2 360 1187.3 361.4 1190.2 367.2C1200.5 355.8 1206 345.1 1208.3 335.4C1204.1 334.7 1199.6 332.7 1196.4 331Z" fill="#FBDCD7"/>
        <path opacity="0.84" d="M1102.3 390L911.7 356.4C902.4 356.4 894.7 347.3 894.7 336.2V212.7C894.7 201.6 902.3 192.5 911.7 192.5L1102.3 226.1C1113.5 228.2 1119.3 235.2 1119.3 246.3V369.8C1119.3 380.9 1111.6 390 1102.3 390Z" fill="#5784EA"/>
        <path d="M969.4 260.8V257.5H975V260.8C979.9 261.8 982.4 265.6 982.4 271.5V272.9H975.9V271.1C975.9 268 974.6 266.8 972.5 266.8C970.4 266.8 969 268 969 271.1C969 274.2 970.3 276.4 974.9 280.1C980.5 284.6 982.5 288.1 982.5 293.1C982.5 299.1 979.9 302.9 975 303.9V307.1H969.4V303.9C964.4 302.9 961.9 299.1 961.9 293.1V290.1H968.4V293.5C968.4 296.6 969.8 297.8 972 297.8C974.2 297.8 975.6 296.7 975.6 293.5C975.6 290.3 974.3 288.1 969.7 284.5C964.1 280 962.1 276.5 962.1 271.5C962.1 265.7 964.6 261.9 969.4 260.8Z" fill="white"/>
        <path d="M1017.8 318.5L993.4 314.4V288.2L1017.8 292.4V318.5Z" fill="#1D2775"/>
        <path d="M1004.4 294.7V293.4H1006.6V294.7C1008.5 295.1 1009.5 296.6 1009.5 298.9V299.4H1007V298.7C1007 297.5 1006.5 297 1005.7 297C1004.8 297 1004.4 297.5 1004.4 298.7C1004.4 299.9 1004.9 300.8 1006.7 302.2C1008.9 304 1009.7 305.3 1009.7 307.3C1009.7 309.6 1008.7 311.1 1006.8 311.5V312.7H1004.6V311.5C1002.7 311.1 1001.7 309.6 1001.7 307.3V306.1H1004.2V307.4C1004.2 308.6 1004.7 309.1 1005.6 309.1C1006.5 309.1 1007 308.7 1007 307.4C1007 306.2 1006.5 305.3 1004.7 303.9C1002.5 302.2 1001.7 300.8 1001.7 298.8C1001.6 296.6 1002.5 295.1 1004.4 294.7Z" fill="#00BEEC"/>
        <path d="M1048.9 344.7L916.6 321.4C910.1 321.4 904.8 315.1 904.8 307.4V221.7C904.8 214 910.1 207.7 916.6 207.7L1048.9 231C1056.7 232.4 1060.7 237.3 1060.7 245V330.7C1060.6 338.4 1055.3 344.7 1048.9 344.7Z" stroke="#F2F7F3" stroke-width="0.6693" stroke-miterlimit="10"/>
        <path d="M1098.8 290.6L1080 287.5C1079.7 287.5 1079.4 287.8 1079.4 288.1V288.2C1079.4 288.5 1079.7 288.8 1080 288.8L1098.8 291.9C1099.1 291.9 1099.4 291.6 1099.4 291.3V291.2C1099.4 290.9 1099.2 290.6 1098.8 290.6Z" fill="#F2F7F3"/>
        <path d="M1098.8 293.4L1080 290.3C1079.7 290.3 1079.4 290.6 1079.4 290.9V291C1079.4 291.3 1079.7 291.6 1080 291.6L1098.8 294.7C1099.1 294.7 1099.4 294.4 1099.4 294.1V294C1099.4 293.7 1099.2 293.4 1098.8 293.4Z" fill="#F2F7F3"/>
        <path d="M1098.8 296.2L1080 293.1C1079.7 293.1 1079.4 293.4 1079.4 293.7V293.8C1079.4 294.1 1079.7 294.4 1080 294.4L1098.8 297.5C1099.1 297.5 1099.4 297.2 1099.4 296.9V296.8C1099.4 296.4 1099.2 296.2 1098.8 296.2Z" fill="#F2F7F3"/>
        <path d="M1098.8 299L1080 295.9C1079.7 295.9 1079.4 296.2 1079.4 296.5V296.6C1079.4 296.9 1079.7 297.2 1080 297.2L1098.8 300.3C1099.1 300.3 1099.4 300 1099.4 299.7V299.6C1099.4 299.2 1099.2 299 1098.8 299Z" fill="#F2F7F3"/>
        <path d="M1098.8 301.7L1080 298.6C1079.7 298.6 1079.4 298.9 1079.4 299.2V299.3C1079.4 299.6 1079.7 299.9 1080 299.9L1098.8 303C1099.1 303 1099.4 302.7 1099.4 302.4V302.3C1099.4 302 1099.2 301.7 1098.8 301.7Z" fill="#F2F7F3"/>
        <path d="M1036.6 355.6L1024.4 353.6C1024.2 353.6 1024 353.8 1024 354V354.1C1024 354.3 1024.2 354.5 1024.4 354.5L1036.6 356.5C1036.8 356.5 1037 356.3 1037 356.1V356C1037 355.8 1036.8 355.6 1036.6 355.6Z" fill="#1D2775"/>
        <path d="M1036.6 357.5L1024.4 355.5C1024.2 355.5 1024 355.7 1024 355.9V356C1024 356.2 1024.2 356.4 1024.4 356.4L1036.6 358.4C1036.8 358.4 1037 358.2 1037 358V357.9C1037 357.6 1036.8 357.5 1036.6 357.5Z" fill="#1D2775"/>
        <path d="M1036.6 359.3L1024.4 357.3C1024.2 357.3 1024 357.5 1024 357.7V357.8C1024 358 1024.2 358.2 1024.4 358.2L1036.6 360.2C1036.8 360.2 1037 360 1037 359.8V359.7C1037 359.4 1036.8 359.3 1036.6 359.3Z" fill="#1D2775"/>
        <path d="M1036.6 361.1L1024.4 359.1C1024.2 359.1 1024 359.3 1024 359.5V359.6C1024 359.8 1024.2 360 1024.4 360L1036.6 362C1036.8 362 1037 361.8 1037 361.6V361.5C1037 361.2 1036.8 361.1 1036.6 361.1Z" fill="#1D2775"/>
        <path d="M1036.6 362.9L1024.4 360.9C1024.2 360.9 1024 361.1 1024 361.3V361.4C1024 361.6 1024.2 361.8 1024.4 361.8L1036.6 363.8C1036.8 363.8 1037 363.6 1037 363.4V363.3C1037 363.1 1036.8 362.9 1036.6 362.9Z" fill="#1D2775"/>
        <path opacity="0.84" d="M1109.1 397L904.9 361C894.9 361 886.7 351.3 886.7 339.4V207.1C886.7 195.2 894.9 185.5 904.9 185.5L1109.1 221.5C1121.1 223.7 1127.3 231.2 1127.3 243.1V375.4C1127.3 387.3 1119.1 397 1109.1 397Z" stroke="white" stroke-width="0.8909" stroke-miterlimit="10"/>
        <path opacity="0.88" d="M1056.2 288L1022.2 282.2V245.7L1056.2 251.5V288Z" fill="#F2F7F3"/>
        <path d="M1052.8 269.8L1038.3 267.3V251.8L1052.8 254.2V269.8Z" fill="#00BEEC"/>
        <path opacity="0.52" d="M1097.2 271.9V287.8L1099.9 288.2V272.3L1097.2 271.9Z" fill="white"/>
        <path opacity="0.52" d="M1093.2 271.2V287.2L1095.9 287.6V271.7L1093.2 271.2Z" fill="white"/>
        <path opacity="0.52" d="M1089.2 274V286.6L1091.9 287V274.5L1089.2 274Z" fill="white"/>
        <path d="M1060.6 246.9V244.9C1060.6 237.2 1056.6 232.3 1048.8 230.9L916.6 207.6C910.9 207.6 906 212.6 905 219.1L1060.6 246.9Z" fill="#F2F7F3"/>
        <path opacity="0.11" d="M1093.3 308.4L1053.7 302C1048.1 301.9 1043.4 306.5 1043.4 312.1L1043 360.2C1042.9 365.8 1047.5 370.5 1053.1 370.5L1092.7 376.9C1098.3 377 1103 372.4 1103 366.8L1103.4 318.7C1103.5 313.1 1099.4 310 1093.3 308.4Z" fill="white"/>
        <path d="M1093.3 308.4L1053.7 302C1048.3 302 1043.9 306.1 1043.4 311.4L1103.4 322V318.8C1103.5 313.1 1099.4 310 1093.3 308.4Z" fill="#F2F7F3"/>
        <path d="M1050.6 309C1051.54 309 1052.3 308.239 1052.3 307.3C1052.3 306.361 1051.54 305.6 1050.6 305.6C1049.66 305.6 1048.9 306.361 1048.9 307.3C1048.9 308.239 1049.66 309 1050.6 309Z" fill="#1D2775"/>
        <path d="M1056.1 309.9C1057.04 309.9 1057.8 309.139 1057.8 308.2C1057.8 307.261 1057.04 306.5 1056.1 306.5C1055.16 306.5 1054.4 307.261 1054.4 308.2C1054.4 309.139 1055.16 309.9 1056.1 309.9Z" fill="#1D2775"/>
        <path d="M1061.5 310.8C1062.44 310.8 1063.2 310.039 1063.2 309.1C1063.2 308.161 1062.44 307.4 1061.5 307.4C1060.56 307.4 1059.8 308.161 1059.8 309.1C1059.8 310.039 1060.56 310.8 1061.5 310.8Z" fill="#1D2775"/>
        <path d="M993.8 242.7L956.8 236.7C951.8 236.7 947.6 240.6 947.2 245.5L1003.2 255.4V252.4C1003.3 247.1 999.5 244.2 993.8 242.7Z" fill="#F2F7F3"/>
        <path d="M953.8 243.2C954.684 243.2 955.4 242.484 955.4 241.6C955.4 240.716 954.684 240 953.8 240C952.916 240 952.2 240.716 952.2 241.6C952.2 242.484 952.916 243.2 953.8 243.2Z" fill="#1D2775"/>
        <path d="M958.9 244.1C959.784 244.1 960.5 243.384 960.5 242.5C960.5 241.616 959.784 240.9 958.9 240.9C958.016 240.9 957.3 241.616 957.3 242.5C957.3 243.384 958.016 244.1 958.9 244.1Z" fill="#1D2775"/>
        <path d="M964 245C964.884 245 965.6 244.284 965.6 243.4C965.6 242.516 964.884 241.8 964 241.8C963.116 241.8 962.4 242.516 962.4 243.4C962.4 244.284 963.116 245 964 245Z" fill="#1D2775"/>
        <path d="M1079.9 355.5C1077.7 357.1 1075.1 358 1072.2 358C1065.2 358 1059.4 352.5 1059 345.6H1051.5C1051.9 356.7 1061 365.5 1072.2 365.5C1076.7 365.5 1080.9 364.1 1084.3 361.6L1079.9 355.5Z" fill="#1D2775"/>
        <path d="M1059.1 342.6C1060.1 336.3 1065.6 331.4 1072.2 331.4C1075.7 331.4 1078.9 332.8 1081.2 335L1087.3 330.6C1083.5 326.5 1078.1 324 1072.1 324C1061.3 324 1052.5 332.2 1051.5 342.7H1059.1V342.6Z" fill="#F2F7F3"/>
        <path d="M1083.1 337.2C1084.6 339.3 1085.4 341.9 1085.4 344.7C1085.4 348.1 1084.1 351.2 1082 353.5L1086.4 359.7C1090.3 355.9 1092.8 350.6 1092.8 344.7C1092.8 340.3 1091.4 336.2 1089.1 332.8L1083.1 337.2Z" fill="#00BEEC"/>
        <path d="M916 216.4C916.884 216.4 917.6 215.684 917.6 214.8C917.6 213.916 916.884 213.2 916 213.2C915.116 213.2 914.4 213.916 914.4 214.8C914.4 215.684 915.116 216.4 916 216.4Z" fill="#1D2775"/>
        <path d="M921.1 217.3C921.984 217.3 922.7 216.584 922.7 215.7C922.7 214.816 921.984 214.1 921.1 214.1C920.216 214.1 919.5 214.816 919.5 215.7C919.5 216.584 920.216 217.3 921.1 217.3Z" fill="#1D2775"/>
        <path d="M926.1 218.1C926.984 218.1 927.7 217.384 927.7 216.5C927.7 215.616 926.984 214.9 926.1 214.9C925.216 214.9 924.5 215.616 924.5 216.5C924.5 217.384 925.216 218.1 926.1 218.1Z" fill="#1D2775"/>
        <path d="M921.4 240.3C920.7 240.8 919.8 241.1 918.9 241.1C916.6 241.1 914.7 239.3 914.6 237.1H912.2C912.3 240.7 915.3 243.6 918.9 243.6C920.4 243.6 921.7 243.1 922.8 242.3L921.4 240.3Z" fill="#F2F7F3"/>
        <path d="M914.7 236.2C915 234.1 916.8 232.6 919 232.6C920.1 232.6 921.2 233 921.9 233.8L923.9 232.4C922.7 231.1 920.9 230.3 919 230.3C915.5 230.3 912.6 233 912.3 236.4H914.7V236.2Z" fill="#F2F7F3"/>
        <path d="M922.5 234.4C923 235.1 923.3 235.9 923.3 236.8C923.3 237.9 922.9 238.9 922.2 239.7L923.6 241.7C924.9 240.5 925.7 238.8 925.7 236.8C925.7 235.4 925.3 234 924.5 233L922.5 234.4Z" fill="#F2F7F3"/>
        <path d="M941 240.6C940.8 241.4 940.3 242.2 939.6 242.8C937.9 244.3 935.3 244.1 933.7 242.5L931.8 244.1C934.2 246.8 938.3 247 941.1 244.7C942.2 243.8 943 242.5 943.3 241.2L941 240.6Z" fill="#F2F7F3"/>
        <path d="M933.2 241.7C932.1 239.9 932.5 237.6 934.1 236.2C935 235.5 936 235.1 937.1 235.2L937.7 232.8C935.9 232.6 934 233.1 932.5 234.3C929.8 236.6 929.4 240.4 931.3 243.2L933.2 241.7Z" fill="#00BEEC"/>
        <path d="M938 235.4C938.8 235.6 939.6 236.1 940.1 236.8C940.8 237.6 941.1 238.7 941.1 239.7L943.5 240.3C943.7 238.5 943.2 236.7 942 235.2C941.1 234.1 939.9 233.4 938.6 233L938 235.4Z" fill="#00BEEC"/>
        <path d="M888.2 391.2C888.2 391.2 891.7 401.8 893.7 403.4C894.9 402.5 892.2 390 892.2 390L888.2 391.2Z" fill="#FBDCD7"/>
        <path d="M912.4 318.1C913.8 314.6 912.3 310.6 909 309.1C905.7 307.6 902.5 308.8 899.9 312.3C899.9 312.3 870.2 342 888.2 390.8C891.2 391.2 892.6 390.8 892.6 390.8C892.6 390.8 883 348.1 912.4 318.1Z" fill="#FBDCD7"/>
        <path d="M899.9 312.3C902.5 308.7 905.7 307.6 909 309.1C912.3 310.6 913.8 314.6 912.4 318.1C904.7 326 899.6 334.8 896.4 343.4C893.7 342.8 888.5 341.4 885.2 339.6C890.1 322 899.9 312.3 899.9 312.3Z" fill="#00BEEC"/>
        <path d="M926.2 268.7C926.2 268.7 938.1 268.1 938.5 285.2C938.9 302.3 940.3 322.2 940.3 322.2L912.8 324.2L910.1 286.4C910.1 286.3 906.1 270.1 926.2 268.7Z" fill="#1D2775"/>
        <path d="M933.3 307.9C928.1 308 924 312.2 924.1 317.3C924.2 322.5 926.9 324.7 933.5 326.5C933.5 326.5 962 337.4 999.3 294.4C996.5 291.3 995.3 289.6 995.3 289.6C995.3 289.6 966.2 318 933.3 307.9Z" fill="#FBDCD7"/>
        <path d="M999.2 294.6C999.2 294.6 1007.9 287.4 1008.9 283.8C1006.9 282.6 995.2 289.7 995.2 289.7L999.2 294.6Z" fill="#FBDCD7"/>
        <path d="M936.8 395.6C936.8 395.6 928.6 402.8 925.6 402.3C925.3 399.2 934.4 388.1 934.4 388.1L936.8 395.6Z" fill="#FBDCD7"/>
        <path d="M919.1 448.3L903.8 448.6L900.9 389.8C900.9 389.4 900.8 389 900.8 388.6C900.8 382.6 905.2 377.7 910.6 377.7C916 377.7 920.4 382.6 920.4 388.6C920.4 388.7 920.4 388.9 920.4 389L919.1 448.3Z" fill="#1D2775"/>
        <path d="M939.7 442.4L924.4 442.7L921.5 383.9C921.5 383.5 921.4 383.1 921.4 382.7C921.4 376.7 925.8 371.8 931.2 371.8C936.6 371.8 941 376.7 941 382.7C941 382.8 941 383 941 383.1L939.7 442.4Z" fill="#1D2775"/>
        <path d="M911.4 439.9C915.7 439.9 919.1 443.7 919.1 448.3L915.8 527.1H908.2L903.8 449.3C903.8 449 903.7 448.7 903.7 448.3C903.7 443.7 907.1 439.9 911.4 439.9Z" fill="#F2F7F3"/>
        <path d="M931.9 433.9C936.2 433.9 939.6 437.7 939.6 442.3L936.3 521.1H928.7L924.3 443.3C924.3 443 924.2 442.7 924.2 442.3C924.2 437.7 927.7 433.9 931.9 433.9Z" fill="#F2F7F3"/>
        <path d="M915.8 527.1C915.8 527.1 921.6 528.4 922.6 532.7C914.1 532.7 908.2 532.7 908.2 532.7V527.1C908.2 527.1 915.9 527.3 915.8 527.1Z" fill="#1D2775"/>
        <path d="M936.4 521.2C936.4 521.2 942.2 522.5 943.2 526.8C934.7 526.8 928.8 526.8 928.8 526.8V521.2C928.8 521.2 936.5 521.3 936.4 521.2Z" fill="#1D2775"/>
        <path d="M939.3 369.3C939.3 369.3 944 391.9 941.9 401.8C938.6 402.5 920.5 408.9 901.9 402.3C900.3 386.5 899.1 380.6 908.5 370.1C917.7 370 939.3 369.3 939.3 369.3Z" fill="#00BEEC"/>
        <path d="M939.3 370L940.9 338C940.9 338 947.6 334.6 944.8 325.2C942 315.8 933.1 307.7 933.1 307.7L904.9 308.5C904.9 308.5 906.4 338.9 908.4 370.8C913.9 370.7 939.3 369.8 939.3 370Z" fill="#00BEEC"/>
        <path d="M915.1 279.4C915.1 279.4 924.5 267.7 933.7 277.8C933.7 277.8 938 296.2 933.3 301.4C928.8 303.4 925.4 302.2 925.4 302.2L925.7 309C924.9 314.7 915.9 308.5 915.9 308.5C916.5 298.6 915.1 279.4 915.1 279.4Z" fill="#FBDCD7"/>
        <path d="M930.7 273.3C930.7 273.3 926 302 914.4 303C913.5 290.8 912.7 279.3 912.7 279.3L914.2 272.6L921.3 271L928 270.3" fill="#1D2775"/>
        <path d="M902.1 443.9L900.9 389.8L937.3 383.1L942.3 391.9C942.3 391.9 942.8 420.6 942.7 443.7C933.7 445.6 915.7 448.2 902.1 443.9Z" fill="#00BEEC"/>
        <path d="M934.7 284.6C934.7 284.6 936 287.8 936.9 288.4C937.6 289.4 935.4 290.6 935.4 290.6" fill="#FBDCD7"/>
        <path d="M933.3 307.9C930.6 307.9 928.3 309.1 926.6 310.9L928.1 324.5C929.5 325.3 931.3 326 933.5 326.6C933.5 326.6 945.5 331.2 964.1 322.7C964 317.7 962.5 312.1 961.3 308.4C952.7 310.5 943.2 310.9 933.3 307.9Z" fill="#00BEEC"/>
        <path d="M828.3 250.4C828.3 250.4 834.5 244.6 832.6 241.7C829.2 240.7 827.6 243.2 825.5 243.4C823.4 243.7 806.2 244.1 805.9 249.9C806.6 253.4 805.9 269 809.6 269.3C813.4 269.6 823.5 259.8 823.5 259.8" fill="#1D2775"/>
        <path d="M824.7 306.9C821 301.4 821.5 293.1 825.9 288.3C830.3 283.6 834.2 284.5 840.6 289.8C840.6 289.8 888.2 325.3 842.6 375C839.6 369.2 838.5 367.8 838.5 367.8C838.5 367.8 869.4 323.9 824.7 306.9Z" fill="#FBDCD7"/>
        <path d="M842.6 375C842.6 375 832.4 384.2 828.2 384.3C827.4 381.2 838.5 367.8 838.5 367.8L842.6 375Z" fill="#FBDCD7"/>
        <path d="M859.8 347.3C871.2 312.6 840.6 289.8 840.6 289.8C834.2 284.5 830.3 283.6 825.9 288.3C821.5 293 821 301.3 824.7 306.9C847.6 315.6 850.7 331.4 848.2 344.8C851.4 345.7 856 346.9 859.8 347.3Z" fill="#00BEEC"/>
        <path d="M803.7 306.9C807.4 301.4 806.9 293.1 802.5 288.3C798.1 283.6 794.2 284.5 787.8 289.8C787.8 289.8 740.2 325.3 785.8 375C788.8 369.2 789.9 367.8 789.9 367.8C789.9 367.8 758.9 323.9 803.7 306.9Z" fill="#FBDCD7"/>
        <path d="M813.8 425.2L796.4 425.5L793 365.9C793 365.5 792.9 365.1 792.9 364.7C792.9 358.6 797.9 353.6 804.1 353.6C810.3 353.6 815.3 358.6 815.3 364.7C815.3 364.8 815.3 365 815.3 365.1L813.8 425.2Z" fill="#F2F7F3"/>
        <path d="M835.5 425.2L818.1 425.5L814.7 365.9C814.7 365.5 814.6 365.1 814.6 364.7C814.6 358.6 819.6 353.6 825.8 353.6C832 353.6 837 358.6 837 364.7C837 364.8 837 365 837 365.1L835.5 425.2Z" fill="#F2F7F3"/>
        <path d="M805.5 417.6C810.3 418.1 813.8 422.3 813.3 427L801.1 506.1L792.5 505.2L795.8 426.2C795.8 425.9 795.8 425.5 795.8 425.2C796.4 420.5 800.7 417.1 805.5 417.6Z" fill="#F2F7F3"/>
        <path d="M826.7 416.7C831.6 416.7 835.5 420.5 835.5 425.2L831.7 505.1H823L817.9 426.2C817.9 425.9 817.8 425.5 817.8 425.2C817.9 420.5 821.8 416.7 826.7 416.7Z" fill="#F2F7F3"/>
        <path d="M789.8 299.3L792.9 365.7H814.6H815.5H837.2L840.3 299.3C840.3 299.3 842.5 280.1 814.4 279.5C797.6 279.7 790.2 284.8 789.8 299.3Z" fill="#00BEEC"/>
        <path d="M801.1 506.1C801.1 506.1 807.5 508.1 808.2 512.5C798.6 511.5 791.9 510.8 791.9 510.8L792.5 505.2C792.5 505.2 801.3 506.2 801.1 506.1Z" fill="#00BEEC"/>
        <path d="M831.7 505.1C831.7 505.1 838.3 506.4 839.4 510.7C829.7 510.7 823 510.7 823 510.7V505.1C823.1 505.1 831.9 505.3 831.7 505.1Z" fill="#00BEEC"/>
        <path d="M808.3 251.1C808.3 251.1 818.4 238.5 828.4 249.3C828.4 249.3 833.1 268.9 828.1 274.4C823.2 276.5 821.8 275.4 821.8 275.4L821.9 282.4C821 288.5 809.3 282.1 809.3 282.1C809.8 271.6 808.3 251.1 808.3 251.1Z" fill="#FBDCD7"/>
        <path d="M785.8 375C785.8 375 796 384.2 800.2 384.3C801 381.2 789.9 367.8 789.9 367.8L785.8 375Z" fill="#FBDCD7"/>
        <path d="M768.6 347.3C757.2 312.6 787.8 289.8 787.8 289.8C794.2 284.5 798.1 283.6 802.5 288.3C806.9 293 807.4 301.3 803.7 306.9C780.8 315.6 777.7 331.4 780.2 344.8C776.9 345.7 772.3 346.9 768.6 347.3Z" fill="#00BEEC"/>
        <path d="M828.7 248.1C828.7 248.1 818.7 253.5 811 251.6C813.1 255.4 813.8 265.6 813.8 267C816.7 264.7 830.5 262.6 831.1 265.1C831.7 267.9 830.5 276 828.4 277C826.3 278 810 281.8 808.2 266.2C807 252.5 806.9 249.6 806.9 249.6L808.8 247.4C808.8 247.4 817.9 243.9 822.7 244.3" fill="#1D2775"/>
        <path d="M682.4 362.5C682.4 362.5 691 353.9 687.1 350.5C683.3 347.1 652.3 333.5 654.1 359.7C654.3 370.4 652.9 380.3 660.5 378.5C668.1 376.7 676.4 367.8 676.4 367.8" fill="#1D2775"/>
        <path d="M656.6 356.9C661.571 356.9 665.6 352.871 665.6 347.9C665.6 342.929 661.571 338.9 656.6 338.9C651.629 338.9 647.6 342.929 647.6 347.9C647.6 352.871 651.629 356.9 656.6 356.9Z" fill="#1D2775"/>
        <path d="M670 394.8C668.2 386.8 660.8 384.5 655.7 385.5C650.6 386.5 650.3 395.5 652.3 402.4C652.3 402.4 663.3 448.5 716.5 438C713.1 433.3 712.3 431.9 712.3 431.9C712.3 431.9 668.4 434.5 670 394.8Z" fill="#00BEEC"/>
        <path d="M716.5 438.1C716.5 438.1 727 434.9 728.4 431.9C726.2 430 712.3 431.9 712.3 431.9L716.5 438.1Z" fill="#FBDCD7"/>
        <path d="M680.1 408C677.3 410.3 671.8 414.6 667.5 415.7C661.9 407.4 660.1 400 660.1 400C658.1 393 658.5 384.1 663.5 383.1C668.6 382.1 676 384.4 677.8 392.4C677.6 398.5 678.4 403.6 680.1 408Z" fill="#00BEEC"/>
        <path d="M721.4 452.1L721.7 468.3L659.6 471.4C659.2 471.4 658.8 471.5 658.4 471.5C652 471.5 646.9 466.8 646.9 461.1C646.9 455.4 652.1 450.7 658.4 450.7C658.6 450.7 658.7 450.7 658.9 450.7L721.4 452.1Z" fill="#1D2775"/>
        <path d="M721.3 452.1C725.8 452.1 729.5 456.1 729.5 461L726 544.2H718L713.3 462C713.3 461.7 713.2 461.3 713.2 461C713.1 456 716.8 452.1 721.3 452.1Z" fill="#F2F7F3"/>
        <path d="M725.9 544.1C725.9 544.1 732 545.5 733.1 550C724.1 550 717.9 550 717.9 550V544.1C717.9 544.1 726.1 544.3 725.9 544.1Z" fill="#00BEEC"/>
        <path d="M737.9 452.5L738.2 468.7L675.9 471.8C675.5 471.8 675.1 471.9 674.7 471.9C668.3 471.9 663.1 467.2 663.1 461.5C663.1 455.8 668.3 451.1 674.7 451.1C674.9 451.1 675 451.1 675.2 451.1L737.9 452.5Z" fill="#F2F7F3"/>
        <path d="M734.1 452.7C738.5 451.7 743 454.8 744 459.6L758.5 541.6L750.6 543.3L728.2 464.1C728.1 463.8 728 463.5 727.9 463.1C727 458.3 729.7 453.6 734.1 452.7Z" fill="#F2F7F3"/>
        <path d="M758.5 541.5C758.5 541.5 764.8 541.5 766.8 545.7C758 547.6 751.9 549 751.9 549L750.6 543.3C750.7 543.3 758.7 541.7 758.5 541.5Z" fill="#00BEEC"/>
        <path d="M677.4 447L678.6 453.1L674.1 471.9C674.1 471.9 647.8 477.3 645.4 460.4C643 443.6 647.1 444.1 647.1 444.1" fill="#00BEEC"/>
        <path d="M677.8 448.5L679.5 414.7C679.5 414.7 686.6 411.1 683.6 401.1C680.6 391.2 671.3 382.6 671.3 382.6L645.3 382.7C645.3 382.7 643 416.4 645.1 450.1C650.8 450.1 677.8 448.2 677.8 448.5Z" fill="#00BEEC"/>
        <path d="M663.4 353.6C663.4 353.6 676.3 344.4 682.8 357.2C682.8 357.2 681.9 377.2 675.7 381C670.6 381.7 667.5 379.6 667.5 379.6L665.8 386.6C663.3 392.1 656 383.3 656 383.3C659.3 373.5 663.4 353.6 663.4 353.6Z" fill="#FBDCD7"/>
        <path d="M689.1 450.6C689.1 450.6 700 450.5 702.3 448.1C700.8 445.6 686.9 443.5 686.9 443.5L689.1 450.6Z" fill="#FBDCD7"/>
        <path d="M654.9 404.3C650.6 434.9 686.8 443.5 686.8 443.5C686.8 443.5 687.1 445.1 689 450.6C643.5 446.2 638.3 411.8 637.8 401.1C642.8 404 650.6 404.4 654.9 404.3Z" fill="#00BEEC"/>
        <path d="M646 382.8C651.2 383.3 657.6 387.7 657 395.8C656 398.8 655.3 401.7 654.9 404.3C650.5 404.3 642.7 403.9 637.8 401.1C637.7 399.1 637.8 398 637.8 398C638 390.8 640.8 382.3 646 382.8Z" fill="#00BEEC"/>
        <path d="M685.1 355.9C685.1 355.9 666.8 373.8 658.8 363.5C654.9 351.9 658 348 658 348L668.2 345.7L677.9 347.3L683.1 349.8" fill="#1D2775"/>
        <path d="M610 380.9C614.4 379.6 619.1 382.1 620.5 386.5L642.7 459.8C642.7 459.9 642.7 460 642.8 460C642.8 460.1 645.6 468.9 658.7 470.8C676.3 473.3 708.9 468.7 709.2 468.6C713.8 467.9 718.1 471.1 718.7 475.7C719.4 480.3 716.2 484.6 711.6 485.2C710.4 485.4 687.2 488.7 667.9 488.2C663.8 488.1 659.8 487.8 656.3 487.3C633.3 484 627.3 466.9 626.6 464.5L604.4 391.4C603.1 386.9 605.6 382.2 610 380.9Z" fill="#1D2775"/>
        <path d="M616.4 507.2H684.9L689.8 552.4L696.6 551.7L685.4 449.5L618.9 442L603 552.1L609.8 553.1L616.4 507.2ZM617.4 500.4L624.8 449.5L679.3 455.7L684.2 500.4H617.4Z" fill="#034C90"/>
        <path d="M687.8 444.1H727.3L752.2 407.5" stroke="#F2F7F3" stroke-width="3.9018" stroke-miterlimit="10"/>
        <path d="M1236.2 439.1L1235.9 455.9L1294.3 459.2C1294.7 459.2 1295.1 459.3 1295.5 459.3C1301.5 459.3 1306.3 454.5 1306.3 448.5C1306.3 442.5 1301.5 437.7 1295.5 437.7C1295.4 437.7 1295.2 437.7 1295.1 437.7L1236.2 439.1Z" fill="#00BEEC"/>
        <path d="M1237.8 439C1233.1 439 1229.3 442.7 1229.3 447.3L1233 525.5H1241.4L1246.3 448.2C1246.3 447.9 1246.4 447.6 1246.4 447.2C1246.2 442.7 1242.4 439 1237.8 439Z" fill="#00BEEC"/>
        <path d="M1232.9 525.5C1232.9 525.5 1226.5 526.8 1225.4 531C1234.7 531 1241.2 531 1241.2 531V525.5C1241.3 525.5 1232.8 525.7 1232.9 525.5Z" fill="white"/>
        <path d="M1271 377.4C1272.7 372.1 1278.4 369.2 1283.7 371C1289 372.7 1290.4 376.3 1290.1 383.7C1290.1 383.7 1290.9 437.1 1235.5 419.3C1237.7 414.5 1238.1 413.1 1238.1 413.1C1238.1 413.1 1282.3 421.1 1271 377.4Z" fill="#1D2775"/>
        <path d="M1235.5 419.3C1235.5 419.3 1224.3 414.5 1222.2 411.2C1223.9 409.3 1238.2 413.1 1238.2 413.1L1235.5 419.3Z" fill="#FBDCD7"/>
        <path d="M1319.7 378.2L1318.8 443.2L1297.9 443.9H1297L1276.1 444.6L1271.1 379.8C1271.1 379.8 1268.4 361.1 1295.5 359.6C1311.6 359.4 1318.8 364.1 1319.7 378.2Z" fill="#1D2775"/>
        <path d="M1250 439.7L1249.7 456.5L1308.1 459.8C1308.5 459.8 1308.9 459.9 1309.3 459.9C1315.3 459.9 1320.1 455.1 1320.1 449.1C1320.1 443.1 1315.3 438.3 1309.3 438.3C1309.2 438.3 1309 438.3 1308.9 438.3L1250 439.7Z" fill="#00BEEC"/>
        <path d="M1251.6 439.6C1246.9 439.6 1243.1 443.3 1243.1 447.9L1246.8 526.1H1255.2L1260.1 448.8C1260.1 448.5 1260.2 448.2 1260.2 447.8C1260 443.3 1256.2 439.6 1251.6 439.6Z" fill="#00BEEC"/>
        <path d="M1246.7 526.2C1246.7 526.2 1240.3 527.5 1239.2 531.7C1248.5 531.7 1255 531.7 1255 531.7V526.2C1255.1 526.2 1246.6 526.3 1246.7 526.2Z" fill="white"/>
        <path d="M1358.1 378.6C1354.1 377.3 1349.8 379.5 1348.5 383.5L1326.9 449.4C1326.9 449.5 1326.9 449.5 1326.8 449.6C1326.8 449.7 1324.1 457.6 1312.1 459C1296.1 460.9 1266.7 456 1266.4 456C1262.3 455.3 1258.3 458.1 1257.6 462.2C1256.9 466.3 1259.7 470.3 1263.8 471C1264.9 471.2 1285.8 474.7 1303.4 474.7C1307.1 474.7 1310.7 474.5 1313.9 474.2C1334.8 471.7 1340.6 456.3 1341.3 454.2L1362.9 388.3C1364.3 384.2 1362.1 379.9 1358.1 378.6Z" fill="#F2F7F3"/>
        <path d="M1267.3 535.8C1267.1 535.8 1267 535.8 1266.8 535.7C1266 535.4 1265.6 534.6 1265.8 533.9C1265.8 533.7 1266 532.9 1266.1 531.9C1277.2 467.6 1288.6 449 1296.2 444.7C1298.7 443.3 1301.4 443 1303.9 444.1C1325.8 452.7 1337.1 528.6 1337.6 531.8C1337.7 532.6 1337.1 533.4 1336.3 533.5C1335.5 533.6 1334.7 533 1334.6 532.2C1334.6 532 1331.7 512.5 1326.2 492.3C1319.1 465.9 1311 450.2 1302.7 447C1301 446.3 1299.3 446.5 1297.6 447.5C1287.7 453.1 1277.3 484 1269 532.5C1268.7 534.5 1268.6 534.6 1268.6 534.8C1268.6 535.4 1268 535.8 1267.3 535.8Z" fill="#1D2775"/>
        <path d="M1267.9 427.3H1131.6V431.2H1267.9V427.3Z" fill="#1D2775"/>
        <path d="M1158 534.5L1154.7 532.4L1218.7 429L1222 431.1L1158 534.5Z" fill="#1D2775"/>
        <path d="M1241.5 534.5L1177.5 431.1L1180.8 429L1244.8 532.4L1241.5 534.5Z" fill="#1D2775"/>
        <path d="M1195.1 338.3L1213.6 410.1L1206.3 411.6L1188.4 340.3L1195.1 338.3Z" fill="#F2F7F3"/>
        <path d="M1196.6 425.6H1181.9C1177.9 425.6 1174.1 423.4 1172.1 419.9C1169.7 415.7 1170.3 410.4 1173.6 406.8L1199.4 378.6L1201.5 380.6L1175.7 408.8C1173.3 411.5 1172.8 415.4 1174.6 418.5C1176.1 421.1 1178.9 422.7 1181.9 422.7H1196.6V425.6Z" fill="#F2F7F3"/>
        <path d="M1299.2 376.5C1300.9 371.2 1306.6 368.3 1311.9 370.1C1317.2 371.8 1318.6 375.4 1318.3 382.8C1318.3 382.8 1319.1 436.2 1263.7 418.4C1265.9 413.6 1266.3 412.2 1266.3 412.2C1266.3 412.2 1310.6 420.1 1299.2 376.5Z" fill="#1D2775"/>
        <path d="M1263.7 418.4C1263.7 418.4 1252.5 413.6 1250.4 410.3C1252.1 408.4 1266.4 412.2 1266.4 412.2L1263.7 418.4Z" fill="#FBDCD7"/>
        <path d="M1261.5 424.1H1231V427H1261.5V424.1Z" fill="#F2F7F3"/>
        <path d="M1285 331.2C1285 331.2 1280.4 322 1285.5 320C1288.4 320 1289.2 321.2 1289.2 321.2L1292.8 320.4C1292.8 320.4 1312.5 324.9 1305.6 334.5C1300.5 339.8 1297.9 337 1297.9 337" fill="#1D2775"/>
        <path d="M1305.3 332.6C1305.3 332.6 1296.3 319.2 1285.5 329.1C1285.5 329.1 1279.2 348.4 1283.7 354.4C1288.3 356.9 1289.9 355.9 1289.9 355.9L1289.2 363C1289.6 369.2 1301.7 363.7 1301.7 363.7C1302.1 353 1305.3 332.6 1305.3 332.6Z" fill="#FBDCD7"/>
        <path opacity="0.27" d="M1299.3 327L1295.6 328C1295.6 328 1296.3 341.8 1298.6 343.3C1299.7 341 1300.7 338.8 1302.2 339.6C1303.7 340.4 1303.4 346.1 1300.9 347.2C1301.6 347.7 1302.4 348 1303.1 348.1C1304.1 339.9 1305.3 332.5 1305.3 332.5C1305.3 332.5 1303 329.2 1299.3 327Z" fill="#1D2775"/>
        <path d="M1287 327.2C1287 327.2 1299.9 334 1306 332.5C1303.5 327.7 1299.7 325.8 1299.7 325.8L1294.8 323.6C1294.8 323.6 1294.4 322.5 1291.3 323.1C1288.2 323.7 1288.2 323.7 1288.2 323.7" fill="#1D2775"/>
        <path d="M1401.3 459.6L1417.6 459.9L1420.7 405.6C1420.7 405.2 1420.8 404.9 1420.8 404.5C1420.8 398.9 1416.1 394.4 1410.3 394.4C1404.5 394.4 1399.8 398.9 1399.8 404.5C1399.8 404.6 1399.8 404.8 1399.8 404.9L1401.3 459.6Z" fill="#00BEEC"/>
        <path d="M1409 345.5C1408.1 342.4 1405.9 340.8 1403 341C1400.1 341.2 1397.6 343.4 1397.7 346.1C1397.7 346.1 1390.9 379.2 1353 365.3C1350.7 368.1 1350.7 367.9 1350.7 367.9C1350.7 367.9 1399.1 394.8 1409 345.5Z" fill="#FBDCD7"/>
        <path d="M1350.7 367.9C1350.7 367.9 1343 362.8 1342.2 361C1343.3 360.4 1352.8 365.4 1352.8 365.4L1350.7 367.9Z" fill="#FBDCD7"/>
        <path d="M1381.8 452.3L1398.1 452.6L1401.2 398.3C1401.2 397.9 1401.3 397.6 1401.3 397.2C1401.3 391.6 1396.6 387.1 1390.8 387.1C1385 387.1 1380.3 391.6 1380.3 397.2C1380.3 397.3 1380.3 397.5 1380.3 397.6L1381.8 452.3Z" fill="#00BEEC"/>
        <path d="M1409.5 451.8C1405 451.8 1401.3 455.3 1401.3 459.6L1404.8 532.4H1412.9L1417.6 460.5C1417.6 460.2 1417.7 459.9 1417.7 459.6C1417.7 455.3 1414 451.8 1409.5 451.8Z" fill="#00BEEC"/>
        <path d="M1390 444.5C1385.5 444.5 1381.8 448 1381.8 452.3L1385.3 525.1H1393.4L1398.1 453.2C1398.1 452.9 1398.2 452.6 1398.2 452.3C1398.2 448 1394.6 444.5 1390 444.5Z" fill="#00BEEC"/>
        <path d="M1404.8 532.3C1404.8 532.3 1398.6 533.5 1397.6 537.4C1406.6 537.4 1412.9 537.4 1412.9 537.4V532.3C1412.9 532.3 1404.7 532.5 1404.8 532.3Z" fill="#F2F7F3"/>
        <path d="M1385.3 525.1C1385.3 525.1 1379.1 526.3 1378.1 530.2C1387.1 530.2 1393.4 530.2 1393.4 530.2V525.1C1393.4 525.1 1385.1 525.2 1385.3 525.1Z" fill="#F2F7F3"/>
        <path d="M1381.5 384C1381.5 384 1376.5 404.9 1378.8 414C1382.3 414.7 1401.6 420.5 1421.3 414.4C1423.1 399.8 1424.3 394.4 1414.3 384.6C1404.5 384.7 1381.5 384 1381.5 384Z" fill="#1D2775"/>
        <path d="M1381.5 384.7L1379.8 355.1C1379.8 355.1 1372.7 351.9 1375.7 343.2C1378.7 334.5 1388.1 327 1388.1 327L1419.8 327.1C1419.8 327.1 1416.5 355.8 1414.4 385.2C1408.5 385.3 1381.5 384.4 1381.5 384.7Z" fill="#1D2775"/>
        <path d="M1355.9 339.7L1335.5 340.2C1332.9 340.9 1331.3 343.6 1331.9 346.2L1339.8 376.5C1340.5 379.1 1343.2 380.7 1345.8 380.1L1366.2 379.6C1368.8 378.9 1370.4 376.2 1369.8 373.6L1361.9 343.3C1361.3 340.6 1358.5 339 1355.9 339.7Z" fill="#F2F7EC"/>
        <path d="M1363.5 376.8C1363.5 376.8 1351.3 372.5 1349.5 370.5C1350.7 369.3 1365.2 372.9 1365.2 372.9L1363.5 376.8Z" fill="#FBDCD7"/>
        <path d="M1364.9 372.7C1381.7 374.5 1392.7 371.4 1399.8 366.2C1400.7 369.3 1402.2 373.5 1404.5 376.1C1386.1 382.8 1363.1 376.7 1363 376.7C1363.1 376.7 1363.3 376.6 1364.9 372.7Z" fill="#FBDCD7"/>
        <path d="M1399.8 366.2C1415 355.2 1412.7 335.2 1412.7 335.2C1411.6 331.9 1413.6 328.3 1417.2 327.2C1420.8 326.1 1424.1 327.5 1426.5 331C1429.7 358.7 1418.4 371 1404.4 376.1C1402.2 373.5 1400.7 369.3 1399.8 366.2Z" fill="#1D2775"/>
        <path d="M1401.3 286.7C1401.3 286.7 1419.1 296.2 1413 318C1408.3 325.7 1388.2 328.7 1385.2 326.7C1385 323.4 1385 321.5 1385 321.5C1385 321.5 1359.1 292 1401.3 286.7Z" fill="#1D2775"/>
        <path d="M1402.3 298.7C1402.3 298.7 1390.7 289.5 1384.1 301.2C1384.1 301.2 1384 319.8 1389.6 323.7C1394.4 324.6 1397.3 322.8 1397.3 322.8L1398.5 329.4C1400.5 334.7 1407.8 326.8 1407.8 326.8C1405.2 317.4 1402.3 298.7 1402.3 298.7Z" fill="#FBDCD7"/>
        <path d="M1386.3 295.3C1386.3 295.3 1391.4 303.4 1396.2 307.7C1400.1 313.5 1394.2 318 1394.2 318C1394.2 318 1407.6 318.7 1408.4 314.7C1409.2 310.7 1408.3 299.2 1408.3 299.2L1403.8 293.2L1400.6 290.6L1396.1 290.2" fill="#1D2775"/>
    </g>
    <defs>
        <clipPath id="clip0">
            <rect width="824.2" height="368" fill="white" transform="translate(603 185)"/>
        </clipPath>
    </defs>
</svg>
